<?xml version="1.0" encoding="utf-8"?>
<!-- Generator: Adobe Illustrator 27.5.0, SVG Export Plug-In . SVG Version: 6.00 Build 0)  -->
<svg version="1.1" xmlns="http://www.w3.org/2000/svg" xmlns:xlink="http://www.w3.org/1999/xlink" x="0px" y="0px"
	 viewBox="0 0 1000 800" style="enable-background:new 0 0 1000 800;" xml:space="preserve">
<g id="shadow">
	<path style="opacity:0.5;fill:#EED5D5;" d="M941.6,652.704H152.174c-24.97,0-45.4,9.179-45.4,20.398l0,0
		c0,7.768,9.8,14.556,24.116,17.998H61.374c-24.97,0-45.4,9.179-45.4,20.398l0,0c0,11.219,20.43,20.398,45.4,20.398h24.223
		c-6.765,3.564-10.87,8.175-10.87,13.198v8.159c0,11.219,20.43,20.398,45.4,20.398h777.676c24.97,0,45.4-9.179,45.4-20.398v-8.159
		c0-11.219-20.43-20.398-45.4-20.398l-52.878,0.453c4.028,0,10.568-1.427,14.955-4.298c7.693-5.032,8.034-12.692,4.273-19.032
		c-2.438-4.11-6.345-7.369-16.024-8.595L941.6,693.5c24.97,0,45.4-9.179,45.4-20.398l0,0C987,661.883,966.57,652.704,941.6,652.704z
		"/>
</g>
<g id="object">
	<g>
		<g>
			<g>
				
					<ellipse transform="matrix(0.7071 -0.7071 0.7071 0.7071 -111.7958 235.5067)" style="fill:#353A85;" cx="228.384" cy="252.703" rx="84.129" ry="84.129"/>
			</g>
			<g>
				
					<ellipse transform="matrix(0.7071 -0.7071 0.7071 0.7071 -111.7958 235.5068)" style="fill:#F7F7F7;" cx="228.384" cy="252.703" rx="72.912" ry="72.912"/>
			</g>
			<g style="opacity:0.07;">
				<g>
					<path style="fill:#394860;" d="M278.422,200.144c10.767,12.707,17.265,29.147,17.265,47.107
						c0,40.268-32.644,72.912-72.912,72.912c-19.374,0-36.981-7.559-50.038-19.885c13.374,15.784,33.339,25.806,55.647,25.806
						c40.268,0,72.912-32.644,72.912-72.912C301.296,232.276,292.505,213.437,278.422,200.144z"/>
				</g>
			</g>
			<g>
				<g>
					<path style="fill:#D67086;" d="M223.207,252.939l-0.095,2.264c-0.039,0.935,0.687,1.724,1.621,1.763l69.202,2.897
						c0.935,0.039,1.724-0.687,1.763-1.621l0.095-2.264c0.039-0.934-0.687-1.724-1.621-1.763l-69.202-2.897
						C224.035,251.278,223.246,252.004,223.207,252.939z"/>
				</g>
				<g>
					<path style="fill:#292949;" d="M231.188,247.851v-35.81c0-1.549-1.256-2.804-2.804-2.804l0,0c-1.549,0-2.804,1.255-2.804,2.804
						v35.81c-1.675,0.97-2.804,2.777-2.804,4.852c0,3.098,2.511,5.609,5.609,5.609c3.098,0,5.609-2.511,5.609-5.609
						C233.992,250.628,232.863,248.821,231.188,247.851z"/>
				</g>
			</g>
		</g>
		<g>
			<path style="fill:#8C6654;" d="M295.882,327.367c8.191,2.24,14.639,9.82,15.537,18.264c4.476-4.17,6.761-10.572,5.937-16.634
				c-0.824-6.062-4.736-11.622-10.163-14.445c-5.078,2.695-9.015,7.463-10.701,12.959L295.882,327.367z"/>
		</g>
		<g>
			<g>
				<path style="fill:#353A85;" d="M876.231,237.196l-27.403,6.266c-1.123-1.294-2.843-1.95-4.558-1.558l-72.327,16.537
					c-1.715,0.392-2.98,1.731-3.428,3.384l-27.403,6.266l6.693,29.274l27.105-6.198c1.07,1.693,3.044,2.624,5.012,2.174
					l72.327-16.537c1.968-0.45,3.341-2.146,3.569-4.135l27.105-6.198L876.231,237.196z"/>
			</g>
			<g style="opacity:0.12;">
				<polygon points="750.302,266.805 756.816,295.308 767.195,292.935 753.256,266.029 				"/>
			</g>
			<g>
				<g>
					<path style="fill:#353A85;" d="M756.617,334.227l-10.901,2.493c-4.501,1.029-8.983-1.785-10.012-6.286l-19.706-86.185
						c-1.029-4.501,1.785-8.983,6.286-10.012l10.901-2.493c4.501-1.029,8.983,1.785,10.012,6.286l19.706,86.185
						C763.932,328.716,761.117,333.198,756.617,334.227z"/>
				</g>
				<g>
					<path style="fill:#353A85;" d="M729.601,340.405l-10.901,2.493c-4.501,1.029-8.983-1.785-10.012-6.286l-19.706-86.185
						c-1.029-4.501,1.785-8.983,6.286-10.012l10.901-2.493c4.501-1.029,8.983,1.785,10.012,6.286l19.706,86.185
						C736.915,334.893,734.101,339.375,729.601,340.405z"/>
				</g>
				<g>
					<path style="fill:#353A85;" d="M700.968,308.711l-3.003-0.253c-2.185-0.184-4.21-2.389-4.878-5.313l-3.612-15.798
						c-0.668-2.924,0.197-5.79,2.085-6.905l2.595-1.533c2.597-1.534,5.947,0.836,6.867,4.858l4.021,17.584
						C705.961,305.374,703.973,308.964,700.968,308.711z"/>
				</g>
			</g>
			<g>
				<g>
					<path style="fill:#353A85;" d="M889.469,303.851l6.525-1.492c5.709-1.305,9.279-6.992,7.974-12.701l-18.705-81.808
						c-1.305-5.709-6.992-9.279-12.701-7.974l-6.525,1.492c-5.709,1.305-9.279,6.992-7.974,12.701l18.705,81.808
						C878.073,301.587,883.76,305.157,889.469,303.851z"/>
				</g>
				<g>
					<path style="fill:#353A85;" d="M916.485,297.674l6.525-1.492c5.709-1.305,9.279-6.992,7.974-12.701l-18.705-81.808
						c-1.305-5.709-6.992-9.279-12.701-7.974l-6.525,1.492c-5.709,1.305-9.279,6.992-7.974,12.701l18.705,81.808
						C905.09,295.41,910.776,298.979,916.485,297.674z"/>
				</g>
				<g>
					<path style="fill:#353A85;" d="M926.312,257.187l2.595-1.533c1.888-1.115,2.753-3.981,2.085-6.905l-3.612-15.798
						c-0.669-2.924-2.693-5.129-4.878-5.313l-3.003-0.253c-3.006-0.253-4.993,3.338-4.073,7.36l4.021,17.584
						C920.365,256.351,923.715,258.721,926.312,257.187z"/>
				</g>
			</g>
		</g>
		<g>
			<g>
				<g>
					<polygon style="fill:#C1796B;" points="200.123,337.94 203.905,324.467 198.217,322.6 193.584,331.252 191.304,329.121 
						189.473,341.044 195.123,343.783 					"/>
				</g>
				<g>
					<polygon style="fill:#8CABEF;" points="102.833,398.055 157.101,391.077 188.739,336.799 199.673,342.807 176.523,415.17 
						112.045,438.633 					"/>
				</g>
			</g>
			<g>
				<g>
					<g>
						<polygon style="fill:#BABCBE;" points="116.698,534.972 116.698,553.57 141.495,634.159 137.167,721.583 148,723.583 
							175.59,618.661 174.642,588.567 163.192,527.19 						"/>
					</g>
					<g>
						<polygon style="fill:#BABCBE;" points="136.368,556.992 110.82,731.795 100.538,732.811 92.974,634.482 77.476,541.494 						
							"/>
					</g>
					<g>
						<polygon style="fill:#292949;" points="148.228,723.074 160.059,735.595 156.641,741.942 132.23,730.225 136.726,720.948 
													"/>
					</g>
					<g>
						<polygon style="fill:#292949;" points="111.242,731.445 125.826,740.614 124.103,747.613 97.538,742.366 99.574,732.261 
													"/>
					</g>
				</g>
				<g>
					<g>
						<path style="fill:#C1796B;" d="M150.87,348.592c-10.045,0.739-19.437-7.51-29.323-5.462
							c-6.428,1.331-11.503,7.033-13.464,13.458c-0.914,2.995-1.238,6.259-0.343,9.237c0.581,1.933,1.652,3.675,2.913,5.223
							c1.686,2.069,3.748,3.788,6.036,5.109c-1.257,2.026-2.698,3.939-4.299,5.705c4.632,1.774,9.265,3.548,13.897,5.322
							c1.024-2.662,2.047-5.324,3.071-7.986c1.393-0.077,2.781-0.276,4.141-0.628c8.225-2.134,15.043-9.337,16.878-17.829
							C151.235,356.762,151.07,352.648,150.87,348.592z"/>
					</g>
					<g>
						<polygon style="fill:#292949;" points="148.334,351.622 117.275,347.932 111.247,371.656 102.476,364.696 106.996,325.876 
							150.828,324.932 169.807,336.066 169.004,347.223 152.033,358.647 						"/>
					</g>
				</g>
				<g>
					<path style="fill:#8CABEF;" d="M136.278,390.857l-36.891-14.634c0,0-17.233,36.416-32.137,88.581s4.813,124.607,4.813,124.607
						s102.87-21,119.746-24.312l-33.293-104.33L136.278,390.857z"/>
				</g>
			</g>
		</g>
		<g>
			<g>
				<g>
					<path style="fill:#EFBFA5;" d="M852.801,384.671c4.519-0.196,9.039-0.393,13.558-0.589c0.243-3.599,0.199-7.217-0.133-10.809
						c0.04,0.436,7.273-3.377,7.913-4.242c1.842-2.49,2.056-6.672,2.823-9.634c1.632-6.31,3.166-13.416-0.168-19.016
						c-3.454-5.8-10.926-7.785-17.673-7.961c-8.472-0.221-17.932,2.248-22.289,9.518c-3.935,6.566,1.03,16.25,2.447,23.194
						c0.699,3.423,1.765,7.33,4.946,8.776c1.689,0.768,3.738,0.684,5.246,1.765C852.128,377.579,851.529,381.656,852.801,384.671z"
						/>
				</g>
				<g>
					<path style="fill:#292949;" d="M823.481,329.383c-0.504-4.683-1.007-9.366-1.511-14.049c-0.187-1.739-0.367-3.544,0.195-5.2
						c0.935-2.755,3.733-4.476,6.541-5.236c2.808-0.76,5.765-0.789,8.606-1.414c3.032-0.667,5.981-2.019,9.083-1.882
						c5.899,0.26,10.415,5.732,16.246,6.664c8.073,1.29,15.487-2.409,20.362,7.093c0.896,1.746,1.144,3.755,1.934,5.552
						c1.02,2.32,2.877,4.15,4.329,6.228c6.384,9.135,4.32,22.999-3.418,30.741c-3.752,3.754-5.286,7.149-10.454,8.353
						c2.367-4.811-0.759-23.978-7.239-26.128c-1.716-0.569-6.872,1.531-8.773,1.809c-4.211,0.615-8.306,1.291-12.267,2.931
						c-5.88,2.435-12.263,4.161-18.627,4.636c-0.814,0.061-1.724,0.091-2.339-0.446c-0.578-0.505-0.698-1.344-0.78-2.108
						C824.738,341.077,824.109,335.23,823.481,329.383z"/>
				</g>
			</g>
			<g>
				<g>
					<g>
						<polygon style="fill:#292949;" points="924.615,730.165 926.433,737.8 912.981,749.069 903.529,743.252 909.346,733.8 
							922.798,722.53 						"/>
					</g>
					<g>
						<polygon style="fill:#BABCBE;" points="893.741,493.991 899.261,517.178 892.262,625.013 924.829,727.514 910.406,734.148 
							845.154,615.81 837.405,578.008 833.464,498.087 						"/>
					</g>
				</g>
				<g>
					<g>
						<polygon style="fill:#BABCBE;" points="803.354,503.185 802.195,603.356 821.072,732.512 835.587,732.512 844.754,613.338 
							864.616,494.164 						"/>
					</g>
					<g>
						<polygon style="fill:#292949;" points="835.503,730.785 835.503,738.633 819.807,746.481 811.959,738.633 819.807,730.785 
													"/>
					</g>
				</g>
				<g>
					<path style="fill:#474EBB;" d="M911.007,522.345c0.2,9.139-0.087,21.456-3.598,21.907c-0.658,0.084-1.289-0.241-1.864-0.555
						c-6.071-3.315-10.367-7.98-16.351-11.183c-6.273-3.357-13.448-5.14-20.486-6.389c-10.523-1.923-21.278-3.115-32-3.302
						c-8.428-0.147-16.897,0.571-25.289,1.269c-6.983,0.581-13.48,2.651-20.593,2.158c-7.291-0.505-14.473-2.739-20.705-6.569
						c-0.228-0.14-0.47-0.3-0.564-0.55c-0.103-0.274-0.003-0.579,0.098-0.854c1.489-4.081,2.559-8.122,5.263-11.502
						c3.02-3.774,5.166-8.569,7.349-12.865c4.549-8.953,8.834-18.336,12.013-27.874c4.805-12.964,10.293-25.592,14.938-38.6
						c3.219-9.016,6.155-18.192,10.524-26.739c3.42-6.692,9.516-16.469,16.859-19.416c2.485-0.997,5.227-1.087,7.904-1.164
						c8.12-0.233,16.241-0.467,24.361-0.7c2.96-0.085,6.039-0.148,8.738,1.072c4.044,1.828,6.33,6.075,8.329,10.038
						c8.961,17.768,14.674,36.924,17.875,56.68c1.671,10.315,3.216,20.65,4.419,31.024c1.342,11.577,2.264,23.206,2.459,34.854
						C910.707,514.378,910.912,518.003,911.007,522.345z"/>
				</g>
				<g>
					<path style="fill:#FFFFFF;" d="M856.825,424.339c-0.305,4.601,0.351,9.206,1.005,13.773
						c3.987,27.812,7.973,55.625,11.96,83.437c-21.804-0.19-43.608-0.38-65.413-0.569c0.789-10.421,1.579-20.841,2.368-31.262
						c0.506-6.68,1.016-13.384,2.426-19.94c2.275-10.574,6.838-20.528,11.37-30.387c8.373-18.217,16.746-36.434,25.119-54.651
						c0.448-0.974,0.92-1.981,1.745-2.682c0.988-0.84,2.338-1.121,3.628-1.345c6.233-1.083,13.271-1.999,19.535-1.079
						c1.566,5.702-4.211,15.615-6.352,20.919C861.102,408.271,857.383,415.933,856.825,424.339z"/>
				</g>
			</g>
			<g>
				<polygon style="fill:#474EBB;" points="816.144,413.344 785.449,367.658 777.597,295.561 790.446,292.706 807.578,358.379 
					837.559,384.79 				"/>
			</g>
			<g>
				<polygon style="fill:#EFBFA5;" points="790.446,292.706 790.446,288.026 792.588,283.426 791.874,279.857 788.305,279.857 
					786.877,287.709 776.195,290.253 777.597,295.561 				"/>
			</g>
			<g>
				<g>
					<polygon style="fill:#EFBFA5;" points="832.056,468.235 825.433,470.871 819.7,468.293 818.537,469.231 819.633,470.71 
						814.262,469.933 810.503,472.228 810.079,478.073 813.446,483.106 819.295,482.912 825.201,479.231 834.423,476.017 					"/>
				</g>
				<g>
					<polygon style="fill:#474EBB;" points="824.412,466.481 862.543,450.463 866.826,404.778 893.238,416.199 887.148,467.05 
						829.432,479.445 					"/>
				</g>
			</g>
		</g>
		<g>
			<g>
				<g>
					<g>
						<polygon style="fill:#BABCBE;" points="450.79,546.005 455.839,615.092 472.556,729.469 485.409,729.469 493.528,623.932 
							497.124,538.545 						"/>
					</g>
					<g>
						<polygon style="fill:#292949;" points="485.335,727.939 485.335,734.889 471.435,741.839 464.485,734.889 471.435,727.939 
													"/>
					</g>
				</g>
			</g>
			<g>
				<g>
					<g>
						<polygon style="fill:#BABCBE;" points="541.84,529.724 536.954,626.564 525.768,737.735 512.603,737.735 501.903,632.406 
							486.272,521.542 						"/>
					</g>
					<g>
						<polygon style="fill:#292949;" points="512.679,736.168 512.679,743.287 526.916,750.405 534.034,743.287 526.916,736.168 
													"/>
					</g>
				</g>
			</g>
			<g>
				<g>
					<path style="fill:#EFBFA5;" d="M496.969,374.455c4.491-0.439,8.983-0.878,13.474-1.318c0.048-3.598-0.191-7.201-0.716-10.761
						c3.745-1.311,8.072-3.279,8.73-7.191c0.207-1.232-0.004-2.492-0.216-3.724c-0.873-5.092-1.745-10.184-2.618-15.276
						c-0.302-1.761-0.623-3.574-1.579-5.084c-1.677-2.649-4.936-3.812-8.024-4.352c-7.881-1.379-16.474,0.317-22.593,5.472
						c-1.629,1.372-3.102,3.022-3.822,5.026c-1.11,3.09-0.288,6.501,0.542,9.678c0.766,2.932,1.531,5.864,2.297,8.797
						c0.881,3.373,2.154,7.207,5.4,8.475c1.724,0.674,3.76,0.48,5.32,1.476C495.917,367.427,495.54,371.521,496.969,374.455z"/>
				</g>
				<g>
					<path style="fill:#292949;" d="M453.09,323.565c-0.087-3.491,0.403-7.023,1.101-10.206c1.198-5.47,7.651-7.928,13.237-8.316
						c12.065-0.837,23.707-6.307,35.489-2.085c6.735,2.413,15.779,2.992,21.874,6.395c2.545,1.421,4.574,3.638,6.155,6.087
						c5.477,8.484,5.491,20.172,0.036,28.669c-1.224,1.907-2.688,3.648-4.226,5.312c-3.184,3.443-6.992,7.696-11.366,8.967
						c-0.099-3.912,3.481-16.242,0.481-19.452c-4.761-5.094-15.543-3.334-21.459-2.089c-6.453,1.358-12.209,5.919-18.607,6.886
						c-4.603,0.696-10.474-1.569-14.384-3.953C455.294,336.044,453.248,329.871,453.09,323.565z"/>
				</g>
			</g>
			<g>
				<g>
					<g>
						<polygon style="fill:#EFBFA5;" points="574.895,309.752 577.503,301.637 573.964,295.006 574.988,293.543 576.841,294.731 
							575.479,288.386 577.912,283.715 584.852,282.736 591.129,286.345 591.371,293.339 587.458,300.683 584.37,311.945 						"/>
					</g>
				</g>
				<g>
					<polygon style="fill:#474EBB;" points="574.53,303.765 587.379,304.479 574.53,368.01 537.877,405.814 516.618,374.058 
						555.256,348.737 					"/>
				</g>
			</g>
			<g>
				<g>
					<g>
						<polygon style="fill:#EFBFA5;" points="437.857,286.109 437.421,277.598 442.543,272.098 441.929,270.42 439.833,271.092 
							442.778,265.31 441.626,260.171 435.17,257.443 428.177,259.32 426.148,266.017 428.043,274.12 428.137,285.797 						"/>
					</g>
				</g>
				<g>
					<polygon style="fill:#474EBB;" points="439.747,280.417 427.146,277.808 426.148,326.29 431.099,363.76 463.322,411.052 
						489.704,372.883 459.073,350.372 					"/>
				</g>
			</g>
			<g>
				<polygon style="fill:#474EBB;" points="486.3,370.99 528.868,372.793 550.356,454.581 568.101,567.965 431.099,571.296 
					463.322,411.052 				"/>
			</g>
		</g>
		<g>
			<g>
				<g>
					<polygon style="fill:#EFBFA5;" points="377.916,393.852 383.103,388.962 383.19,382.677 384.531,382.019 385.408,383.638 
						386.974,378.442 390.642,376.004 396.119,378.089 399.258,383.268 396.611,388.487 390.779,392.285 383.969,399.285 					"/>
				</g>
				<g>
					<polygon style="fill:#D67086;" points="379.557,386.182 350.513,420.605 312.592,383.871 306.695,427.785 352.856,450.672 
						389.185,396.21 					"/>
				</g>
			</g>
			<g>
				<g>
					<polygon style="fill:#3B3387;" points="264.847,730.885 264.218,737.093 275.496,744.833 282.079,739.392 276.754,732.418 
						265.476,724.677 					"/>
				</g>
				<g>
					<polygon style="fill:#EFBFA5;" points="265.128,541.082 263.218,559.936 280.131,624.713 264.426,728.804 275.986,732.787 
						306.47,631.163 311.307,601.599 311.131,539.013 					"/>
				</g>
			</g>
			<g>
				<g>
					<polygon style="fill:#EFBFA5;" points="354.041,562.096 329.725,736.516 318.672,736.516 316.683,624.713 296.566,546.239 
											"/>
				</g>
				<g>
					<polygon style="fill:#3B3387;" points="318.736,735.136 318.736,741.402 330.688,747.667 336.664,741.402 330.688,735.136 
											"/>
				</g>
			</g>
			<g>
				<path style="fill:#D67086;" d="M326.886,383.045c-0.876-1.431-2.045-2.65-3.649-3.556c-10.981-6.197-29.182-0.739-41.097-0.739
					c-3.521,37.074-13.256,72.409-19.544,108.81c-6.678,38.66-14.197,77.175-22.55,115.508c-0.473,2.171,33.161,1.076,36.333,1.129
					c32.358,0.546,74.714,0.434,105.936-9.349c-19.926-53.493-27.201-111.05-42.892-165.935c-2.755-9.636-6.026-19.127-8.507-28.84
					C329.479,394.441,329.7,387.646,326.886,383.045z"/>
			</g>
			<g>
				<path style="fill:#EFBFA5;" d="M328.865,339.314c-4.232-22.344-32.148-18.483-40.156-0.389
					c-4.554,10.29,0.217,24.855,9.327,32.015c0.195,1.978,0.452,7.435,1.965,8.758c1.638,1.432,6.797,0.067,8.819-0.401
					c0.561-0.13,1.147-0.291,1.553-0.698c0.509-0.51,0.594-1.875,0.604-3.388c1.484-0.101,3.004-0.39,4.552-0.898
					c6.493-2.132,11.196-8.143,13.14-14.695C330.612,353.067,330.137,346.028,328.865,339.314z"/>
			</g>
			<g>
				<path style="fill:#292949;" d="M287.59,428.008c0.265-0.015,0.481-0.036,0.638-0.063c4.924-0.845,12.827-2.435,15.113-7.624
					c2.343-5.316-1.82-14.961-2.507-20.485c-1.044-8.397-1.391-16.867-1.795-25.314c-0.364-7.615,2.357-15.119,6.34-21.619
					c3.983-6.5,9.195-12.144,14.326-17.781c2.134-2.345,4.343-4.853,4.996-7.956c0.721-3.432-0.651-7.055-2.915-9.734
					c-3.483-4.122-7.617-6.173-12.877-6.298c-18.464-0.441-32.344,10.482-37.582,28.513c-7.505,25.839,1.871,50.495,0.474,76.207
					c-0.238,4.39-1.69,8.708-4.152,12.351C268.302,427.237,283.607,428.235,287.59,428.008z"/>
			</g>
			<g>
				<g>
					<path style="fill:#D67086;" d="M250.285,526.397c-1.479,1.853-4.143,2.437-6.468,1.969c-2.324-0.468-4.37-1.818-6.239-3.278
						c-2.254-1.761-4.349-3.725-6.252-5.861c-1.093-1.227-2.145-2.55-2.654-4.113c-0.51-1.563-0.384-3.423,0.695-4.663
						c0.74-0.85,1.818-1.312,2.858-1.746c0.737-0.307,1.527-0.621,2.312-0.472c0.659,0.125,1.21,0.559,1.732,0.98
						C239.855,512.099,254.973,520.525,250.285,526.397z"/>
				</g>
				<g>
					<g>
						<path style="fill:#EFBFA5;" d="M243.014,526.41c0.295,0.083,0.596,0.145,0.905,0.183c0.964,0.119,2.429,0.101,3.318-0.348
							c-0.001,0.001,2.619-1.835,1.471-1.809l-2.379,0.053l4.829-5.09l0.383-5.682l-5.855-4.811l-7.827-0.202
							c-2.344,3.561-5.693,6.857-2.925,11.21c0.821,1.291,1.988,2.318,3.14,3.326C239.557,524.538,241.149,525.886,243.014,526.41z"
							/>
					</g>
				</g>
			</g>
		</g>
		<g>
			<g>
				<g>
					<path style="fill:#3B3387;" d="M632.143,382.042c-0.22,0.082-0.439,0.165-0.657,0.249
						c-10.405,4.048-18.576,22.211-23.258,32.884c-12.087,27.551-17.367,56.261-18.327,86.708
						c-0.517,16.395-0.323,32.816,0.197,49.221c0.144,4.533,4.073,45.109,2.064,46.078c20.61-9.94,41.567-19.329,63.507-25.003
						c21.94-5.674,45.021-7.539,67.183-2.37c-6.74-51.508-16.509-103.914-30.597-153.683c-1.685-5.953-2.811-12.298-5.309-17.939
						c-2.877-6.497-7.193-8.416-12.648-12.256c-1.869-1.316-3.751-2.64-5.805-3.557C657.666,377.536,643.104,377.98,632.143,382.042
						z"/>
				</g>
				<g>
					<g>
						<g>
							<polygon style="fill:#C1796B;" points="600.438,544.161 624.059,640.032 624.61,713.752 635.874,715.849 640.538,647.456 
								651.796,527.098 							"/>
						</g>
					</g>
					<g>
						<polygon style="fill:#3B3387;" points="636.201,715.159 638.054,722.326 636.428,736.388 627.134,736.405 623.653,716.078 
							624.732,712.679 						"/>
					</g>
				</g>
				<g>
					<g>
						<polygon style="fill:#C1796B;" points="690.624,533.572 692.708,616.413 681.65,733.415 670.328,734.244 666.26,626.982 
							643.203,529.742 						"/>
					</g>
					<g>
						<polygon style="fill:#3B3387;" points="681.296,731.46 696.547,739.557 695.336,746.681 668.395,743.381 669.691,733.129 
													"/>
					</g>
				</g>
				<g>
					<polygon style="fill:#474EBB;" points="693.943,544.26 701.617,639.971 693.81,705.61 663.141,703.873 657.675,629.247 
						644.412,547.888 646.472,535.221 690.673,535.869 					"/>
				</g>
				<g>
					<polygon style="fill:#474EBB;" points="647.447,633.007 643.844,701.658 617.185,700.291 617.729,635.184 600.919,553.421 
						604.754,530.566 649.589,533.357 					"/>
				</g>
				<g>
					<path style="fill:#FFFFFF;" d="M709.696,545.969c-27.439,4.19-73.099,7.389-100.538,11.579
						c-1.478-49.613,3.407-106.906,15.377-154.917c2.171-8.708,5.379-18.108,12.987-22.544c8.152-4.752,25.442-4.108,30.417,5.124
						c7.278,13.506,8.715,35.005,11.963,50.036C687.248,469.256,705.145,511.466,709.696,545.969z"/>
				</g>
				<g>
					<g>
						<path style="fill:#C1796B;" d="M632.694,344.92c4.086-20.239,29.387-16.43,36.46,0.084
							c4.659,10.878-2.102,26.827-13.053,31.451c0.67,2.766,1.223,5.561,1.654,8.374c-3.101,0.174-6.202,0.347-9.302,0.521
							c-0.959,0.054-2.086,0.034-2.66-0.737c-0.348-0.467-0.386-1.087-0.411-1.669c-0.084-1.96-0.168-3.921-0.252-5.882
							c-0.235-0.07-0.471-0.143-0.708-0.224c-5.872-2.006-10.075-7.514-11.769-13.483
							C630.958,357.386,631.466,351.001,632.694,344.92z"/>
					</g>
					<g>
						<g>
							<g>
								<path style="fill:#292949;" d="M635.238,350.457c-3.203,6.096-1.221,13.479,0.545,19.801
									c1.566,5.606,1.846,9.173-4.526,9.574c-3.59,0.226-9.972,0.699-12.574-2.448c-1.969-2.383,0.337-8.37,1.858-10.65
									c1.162-1.74,3.578-2.325,4.693-4.096c0.46-0.73,0.65-1.594,0.801-2.443c0.617-3.468,0.707-7.03,0.264-10.525
									c-0.3-2.373-0.846-4.745-0.663-7.13c0.265-3.458,3.327-7.038,5.107-9.963c3.312-5.444,12.799-11.92,18.921-6.219
									c1.394,1.298,2.017,3.209,2.497,5.052c0.287,1.101,0.544,2.243,0.373,3.367c-0.68,4.484-4.89,4.571-8.061,6.239
									C640.563,343.074,637.282,346.566,635.238,350.457z"/>
							</g>
							<g>
								<path style="fill:#292949;" d="M667.56,356.827c-0.263,3.211-2.502,6.462-1.197,9.407c0.582,1.312,1.767,2.236,2.721,3.308
									c2.606,2.929,3.492,7.286,2.237,10.999c6.386,0.794,12.772,1.589,19.158,2.383c0.963,0.12,1.975,0.234,2.875-0.128
									c1.924-0.774,2.419-3.219,2.64-5.281c0.435-4.061,0.813-8.423-1.177-11.99c-0.922-1.654-2.301-3.018-3.218-4.675
									c-4.411-7.968,3.064-19.468-2.745-26.483c-2.592-3.13-6.945-4.043-10.4-6.184c-6.024-3.732-9.173-11.124-15.426-14.458
									c-11.809-6.296-26.42,6.969-20.833,19.324C646.752,343.125,668.619,343.897,667.56,356.827z"/>
							</g>
						</g>
					</g>
				</g>
				<g>
					<path style="fill:#3B3387;" d="M632.919,383.524c0,0-8.729,123.19,10.398,147.48c19.128,24.29,27.309,33.442,27.309,33.442
						l-78.391,32.73C592.235,597.177,593.937,417.543,632.919,383.524z"/>
				</g>
			</g>
			<g>
				<g>
					<path style="fill:#898F92;" d="M714.367,458.951c1.85,1.483,2.428,4.148,1.955,6.472c-0.473,2.323-1.827,4.366-3.291,6.232
						c-1.766,2.25-3.735,4.341-5.875,6.239c-1.23,1.091-2.555,2.139-4.119,2.645c-1.564,0.506-3.424,0.377-4.662-0.705
						c-0.849-0.741-1.307-1.821-1.739-2.862c-0.306-0.738-0.618-1.529-0.467-2.313c0.127-0.658,0.562-1.209,0.984-1.73
						C700.047,469.35,708.505,454.25,714.367,458.951z"/>
				</g>
				<g>
					<g>
						<path style="fill:#DDC8AC;" d="M714.364,466.222c0.083-0.294,0.146-0.596,0.185-0.905c0.121-0.963,0.106-2.429-0.341-3.319
							c0.001,0.001-1.829-2.623-1.806-1.475l0.048,2.379l-5.08-4.84l-5.681-0.396l-4.824,5.844l-0.219,7.827
							c3.556,2.352,6.845,5.707,11.204,2.949c1.293-0.818,2.323-1.983,3.333-3.132C712.485,469.675,713.837,468.086,714.364,466.222
							z"/>
					</g>
				</g>
			</g>
		</g>
		<g>
			<g>
				<path style="fill:#D67086;" d="M804.804,435.426c-2.504,3.902-6.877,6.491-11.857,6.491c-3.079,0-5.926-0.991-8.243-2.668
					c-1.668,2.408-4.447,3.988-7.598,3.988c-3.266,0-6.13-1.699-7.773-4.256c-1.577,0.753-3.343,1.176-5.208,1.176
					c-6.683,0-12.101-5.418-12.101-12.101c0-2.35,0.672-4.543,1.832-6.399c-5.194-0.305-9.313-4.612-9.313-9.882
					c0-0.19,0.007-0.378,0.017-0.565c-5.985,2.189-11.213,5.337-15.519,8.558c-7.594,5.682-17.224,8.272-26.666,7.351
					c-13.135-1.28-31.016,0.622-44.353,15.92c-17.883,20.51-14.91,47.116-3.856,68.966c8.18,16.17,19.641,32.035,34.56,43.473
					c14.437,11.068,38.582,20.282,56.482,8.605c5.457-3.56,11.943-5.439,18.439-5.027c31.096,1.971,43.433-33.574,47.628-56.267
					C815.34,480.786,815.644,455.445,804.804,435.426z"/>
			</g>
			<g>
				<path style="fill:#292949;" d="M724.248,421.54c4.76-3.909,8.473-10.177,10.943-16.768c2.47-6.591,3.811-13.54,4.903-20.406
					c0.757-4.758,1.408-9.561,1.292-14.171c-4.833,1.918-9.641,4.207-14.39,6.85c-5.356,2.98-10.735,6.495-15.312,11.712
					c-4.576,5.217-8.295,12.389-9.026,19.663C701.119,423.729,714.443,429.593,724.248,421.54z"/>
			</g>
		</g>
		<g>
			<g>
				<path style="fill:#D67086;" d="M577.883,54.647c-26.912,0.638-58.986,18.417-64.598,42.044
					c-10.413-21.939-52.826-31.646-79.281-26.66c-69.81,13.155-85.372,94.191-49.954,143.852
					c19.063,26.728,44.772,49.145,72.315,68.804c23.065,16.462,81.654,50.359,81.806,50.207c0.18,0.117,50.419-45.246,69.546-66.154
					c22.842-24.968,43.314-52.251,56.388-82.365C688.396,128.422,648.901,52.964,577.883,54.647z"/>
			</g>
			<g style="opacity:0.12;">
				<path d="M651.119,192.489c-15.315,23.05-33.54,45.093-53.801,64.507c-19.593,18.774-43.074,35.805-70.08,43.514
					c-12.973,3.703-25.946,4.746-38.49,3.221c24.285,14.967,50.563,30.118,50.665,30.016c0.18,0.117,50.418-45.246,69.546-66.154
					c22.842-24.968,43.314-52.251,56.388-82.365c4.23-9.744,6.521-20.08,7.052-30.496
					C666.391,167.805,659.147,180.406,651.119,192.489z"/>
			</g>
			<g>
				<path style="fill:#FFFFFF;" d="M647.594,170.295c-18.389,2.411-36.778,4.821-55.168,7.232
					c-9.223-23.503-18.446-47.007-27.669-70.51c-1.333-3.398-6.505-2.587-7.261,0.765c-9.836,43.64-19.671,87.28-29.507,130.92
					c-0.57,2.528-1.139,5.055-1.709,7.583c-12.63-26.715-25.26-53.43-37.889-80.145c-2.026-4.285-4.051-8.569-6.077-12.854
					c-1.221-2.583-5.758-3.18-6.97-0.121c-5.636,14.22-11.272,28.439-16.909,42.659c-20.634,2.174-41.269,4.348-61.904,6.522
					c-4.845,0.511-4.106,7.599,0.747,7.088c21.412-2.256,42.823-4.512,64.235-6.768c1.253-0.132,2.607-0.94,3.066-2.098
					c4.83-12.186,9.66-24.371,14.49-36.557c12.957,27.408,25.914,54.815,38.871,82.223c2.026,4.285,4.051,8.569,6.077,12.854
					c1.52,3.214,6.469,2.747,7.261-0.765c9.835-43.64,19.671-87.28,29.507-130.92c0.47-2.088,0.941-4.175,1.411-6.262
					c8.062,20.545,16.124,41.089,24.186,61.634c0.56,1.427,2.281,2.432,3.904,2.219c19.351-2.537,38.702-5.073,58.053-7.61
					C653.164,176.751,652.437,169.661,647.594,170.295z"/>
			</g>
		</g>
		<g>
			<g>
				<path style="fill:#F7F7F7;" d="M262.617,518.648l-78.666,8.94c-29.092,3.306-55.519-18.951-59.027-49.714v0
					c-3.508-30.763,17.232-58.381,46.324-61.687l78.468-8.918L262.617,518.648z"/>
			</g>
			<g>
				<path style="fill:#3B3387;" d="M265.395,518.333l152.87-17.374c23.39-2.658,40.194-23.779,37.527-47.169l-3.047-26.724
					c-2.666-23.377-23.773-40.169-47.151-37.512l-152.903,17.377L265.395,518.333z"/>
			</g>
			<g>
				<path style="fill:#FFFFFF;" d="M288.72,439.962l4.162-0.473l4.163,36.507l-4.162,0.473l-1.882-16.503l-15.986,1.817
					l1.882,16.503l-4.161,0.473l-4.163-36.507l4.162-0.473l1.882,16.503l15.986-1.817L288.72,439.962z"/>
				<path style="fill:#FFFFFF;" d="M302.907,438.35l18.35-2.086l0.399,3.501l-14.188,1.613l1.449,12.702l13.195-1.499l0.399,3.501
					l-13.195,1.5l1.517,13.302l15.134-1.72l0.399,3.501l-19.296,2.193L302.907,438.35z"/>
				<path style="fill:#FFFFFF;" d="M336.439,434.539l5.533-0.629l15.467,35.223l-4.115,0.468l-4.612-10.62l-13.148,1.495
					l-2.103,11.383l-4.114,0.467L336.439,434.539z M339.674,438.123l-3.469,18.733l11.02-1.252L339.674,438.123z"/>
				<path style="fill:#FFFFFF;" d="M363.256,468.472l-4.163-36.507l4.162-0.473l3.764,33.007l12.864-1.462l0.399,3.5
					L363.256,468.472z"/>
				<path style="fill:#FFFFFF;" d="M375.004,433.703l-0.399-3.501l22.701-2.58l0.399,3.501l-9.27,1.053l3.764,33.006l-4.162,0.473
					l-3.764-33.006L375.004,433.703z"/>
				<path style="fill:#FFFFFF;" d="M422.797,424.725l4.162-0.473l4.163,36.507l-4.162,0.473l-1.882-16.503l-15.986,1.817
					l1.882,16.503l-4.162,0.473l-4.163-36.507l4.162-0.473l1.882,16.503l15.985-1.817L422.797,424.725z"/>
			</g>
			<g>
				<g>
					<path style="fill:#3B3387;" d="M226.305,457.139c-6.663,0.757-13.325,1.514-19.988,2.272c-0.624,0.071-1.248,0.142-1.872,0.213
						c-0.585-5.131-1.17-10.261-1.755-15.392c-0.294-2.574-0.587-5.149-0.881-7.723c-0.098-0.858-0.868-1.509-1.681-1.416
						c-4.141,0.471-8.282,0.941-12.422,1.412c-0.811,0.092-1.418,0.897-1.32,1.757c0.803,7.045,1.607,14.09,2.41,21.135
						c0.075,0.66,0.15,1.32,0.226,1.98c-4.852,0.552-9.704,1.103-14.556,1.654c-2.434,0.277-4.869,0.553-7.303,0.83
						c-0.811,0.092-1.418,0.898-1.32,1.757c0.499,4.379,0.999,8.757,1.498,13.136c0.055,0.486,0.269,0.836,0.557,1.062
						c0.274,0.259,0.652,0.408,1.124,0.355c6.663-0.757,13.325-1.514,19.988-2.272c0.624-0.071,1.248-0.142,1.872-0.213
						c0.585,5.131,1.17,10.262,1.755,15.392c0.294,2.574,0.587,5.148,0.881,7.723c0.098,0.858,0.868,1.509,1.682,1.416
						c4.141-0.471,8.281-0.941,12.422-1.412c0.46-0.052,0.789-0.273,0.998-0.575c0.242-0.286,0.378-0.683,0.321-1.182
						c-0.803-7.045-1.607-14.09-2.41-21.135c-0.075-0.66-0.15-1.32-0.226-1.98c4.852-0.551,9.704-1.103,14.556-1.654
						c2.435-0.277,4.869-0.553,7.303-0.83c0.811-0.092,1.418-0.897,1.32-1.757c-0.499-4.378-0.999-8.757-1.498-13.136
						C227.889,457.698,227.118,457.047,226.305,457.139z"/>
				</g>
			</g>
		</g>
		<g>
			<g>
				<g>
					<path style="fill:#C1796B;" d="M641.822,478.877c0.066,0.299,0.153,0.594,0.266,0.884c0.35,0.906,1.057,2.19,1.872,2.762
						c-0.001-0.001,2.853,1.444,2.289,0.444l-1.169-2.073l6.766,1.858l5.192-2.341l1.482-7.432l-3.513-6.998
						c-4.245-0.388-8.731-1.787-11.265,2.707c-0.752,1.333-1.107,2.847-1.453,4.337
						C641.843,474.946,641.404,476.985,641.822,478.877z"/>
				</g>
			</g>
		</g>
		<polygon style="fill:#3B3387;" points="645.768,465.47 621.442,449.682 602.708,467.363 642.087,479.762 		"/>
	</g>
</g>
</svg>
